<svg width="129" height="97" viewBox="0 0 129 97" fill="none" xmlns="http://www.w3.org/2000/svg">
<ellipse cx="97.0578" cy="31.1518" rx="4.16812" ry="4.16812" fill="#4ECB71"/>
<ellipse cx="97.0578" cy="45.4425" rx="1.78634" ry="1.78634" fill="#FF0000"/>
<ellipse cx="14.2907" cy="69.8558" rx="1.19089" ry="1.19089" fill="#AD00FF"/>
<ellipse cx="28.5815" cy="6.7385" rx="1.19089" ry="1.19089" fill="#AD00FF"/>
<ellipse cx="112.539" cy="63.3059" rx="4.16812" ry="4.16812" fill="#FF0000"/>
<ellipse cx="83.9579" cy="78.7875" rx="4.16812" ry="4.16812" fill="#311FFF"/>
<ellipse cx="32.7495" cy="78.7875" rx="4.16812" ry="4.16812" fill="#AD00FF"/>
<ellipse cx="13.6953" cy="49.0152" rx="4.16812" ry="4.16812" fill="#FFD600"/>
<ellipse cx="49.422" cy="4.95218" rx="4.16812" ry="4.16812" fill="#FFD600"/>
<path d="M126.235 37.1063C126.235 37.1063 130.207 48.0203 126.235 51.9924C122.662 55.5651 114.326 56.1605 114.326 56.1605" stroke="#FF0000" stroke-width="2"/>
<path d="M57.3639 93.9809C57.3639 93.9809 50.1357 95.9811 48.2312 90.6964C46.5182 85.9431 47.6357 82.9556 47.6357 82.9556" stroke="#AD00FF" stroke-width="2"/>
<path d="M13.2632 22.5273C13.2632 22.5273 6.03498 24.5276 4.13046 19.2428C2.41747 14.4896 3.53496 11.5021 3.53496 11.5021" stroke="#AD00FF" stroke-width="2"/>
<path d="M54.3334 48.7159L47.1667 41.5492C46.5556 40.9381 45.7778 40.6326 44.8334 40.6326C43.8889 40.6326 43.1111 40.9381 42.5 41.5492C41.8889 42.1603 41.5834 42.9381 41.5834 43.8826C41.5834 44.827 41.8889 45.6048 42.5 46.2159L52 55.7159C52.6667 56.3826 53.4445 56.7159 54.3334 56.7159C55.2222 56.7159 56 56.3826 56.6667 55.7159L75.5 36.8826C76.1111 36.2715 76.4167 35.4937 76.4167 34.5492C76.4167 33.6048 76.1111 32.827 75.5 32.2159C74.8889 31.6048 74.1111 31.2992 73.1667 31.2992C72.2222 31.2992 71.4445 31.6048 70.8334 32.2159L54.3334 48.7159ZM59 76.0492C54.3889 76.0492 50.0556 75.1737 46 73.4226C41.9445 71.6715 38.4167 69.297 35.4167 66.2992C32.4167 63.3015 30.0422 59.7737 28.2934 55.7159C26.5445 51.6581 25.6689 47.3248 25.6667 42.7159C25.6645 38.107 26.54 33.7737 28.2934 29.7159C30.0467 25.6581 32.4211 22.1303 35.4167 19.1326C38.4122 16.1348 41.94 13.7603 46 12.0092C50.06 10.2581 54.3934 9.38257 59 9.38257C63.6067 9.38257 67.94 10.2581 72 12.0092C76.06 13.7603 79.5878 16.1348 82.5834 19.1326C85.5789 22.1303 87.9545 25.6581 89.71 29.7159C91.4656 33.7737 92.34 38.107 92.3334 42.7159C92.3267 47.3248 91.4511 51.6581 89.7067 55.7159C87.9622 59.7737 85.5878 63.3015 82.5834 66.2992C79.5789 69.297 76.0511 71.6726 72 73.4259C67.9489 75.1792 63.6156 76.0537 59 76.0492Z" fill="#4ECB71"/>
</svg>
